<mxfile host="app.diagrams.net" agent="Mozilla/5.0 (Windows NT 10.0; Win64; x64) AppleWebKit/537.36 (KHTML, like Gecko) Chrome/130.0.0.0 Safari/537.36" version="24.8.3">
  <diagram name="Pagina-1" id="unB9tMg7LoXDffmjVxSp">
    <mxGraphModel dx="592" dy="310" grid="1" gridSize="10" guides="1" tooltips="1" connect="1" arrows="1" fold="1" page="1" pageScale="1" pageWidth="827" pageHeight="1169" math="0" shadow="0">
      <root>
        <mxCell id="0" />
        <mxCell id="1" parent="0" />
        <mxCell id="3Agh389V7zgmcIc8nLXt-6" style="edgeStyle=orthogonalEdgeStyle;rounded=0;orthogonalLoop=1;jettySize=auto;html=1;" edge="1" parent="1" source="3Agh389V7zgmcIc8nLXt-1" target="3Agh389V7zgmcIc8nLXt-2">
          <mxGeometry relative="1" as="geometry" />
        </mxCell>
        <mxCell id="3Agh389V7zgmcIc8nLXt-1" value="Identificazione delle storie" style="rounded=1;whiteSpace=wrap;html=1;fillColor=none;strokeColor=#006aff;fillStyle=auto;" vertex="1" parent="1">
          <mxGeometry x="50" y="220" width="120" height="60" as="geometry" />
        </mxCell>
        <mxCell id="3Agh389V7zgmcIc8nLXt-7" style="edgeStyle=orthogonalEdgeStyle;rounded=0;orthogonalLoop=1;jettySize=auto;html=1;entryX=0;entryY=0.5;entryDx=0;entryDy=0;" edge="1" parent="1" source="3Agh389V7zgmcIc8nLXt-2" target="3Agh389V7zgmcIc8nLXt-3">
          <mxGeometry relative="1" as="geometry" />
        </mxCell>
        <mxCell id="3Agh389V7zgmcIc8nLXt-2" value="Stima iniziale" style="rounded=1;whiteSpace=wrap;html=1;fillColor=none;strokeColor=#006aff;fillStyle=auto;" vertex="1" parent="1">
          <mxGeometry x="220" y="220" width="120" height="60" as="geometry" />
        </mxCell>
        <mxCell id="3Agh389V7zgmcIc8nLXt-8" style="edgeStyle=orthogonalEdgeStyle;rounded=0;orthogonalLoop=1;jettySize=auto;html=1;" edge="1" parent="1" source="3Agh389V7zgmcIc8nLXt-3" target="3Agh389V7zgmcIc8nLXt-4">
          <mxGeometry relative="1" as="geometry" />
        </mxCell>
        <mxCell id="3Agh389V7zgmcIc8nLXt-3" value="Release planning" style="rounded=1;whiteSpace=wrap;html=1;fillColor=none;strokeColor=#006aff;fillStyle=auto;" vertex="1" parent="1">
          <mxGeometry x="390" y="220" width="120" height="60" as="geometry" />
        </mxCell>
        <mxCell id="3Agh389V7zgmcIc8nLXt-9" style="edgeStyle=orthogonalEdgeStyle;rounded=0;orthogonalLoop=1;jettySize=auto;html=1;entryX=0;entryY=0.5;entryDx=0;entryDy=0;" edge="1" parent="1" source="3Agh389V7zgmcIc8nLXt-4" target="3Agh389V7zgmcIc8nLXt-5">
          <mxGeometry relative="1" as="geometry" />
        </mxCell>
        <mxCell id="3Agh389V7zgmcIc8nLXt-4" value="Iteration planning" style="rounded=1;whiteSpace=wrap;html=1;fillColor=none;strokeColor=#006aff;fillStyle=auto;" vertex="1" parent="1">
          <mxGeometry x="560" y="220" width="120" height="60" as="geometry" />
        </mxCell>
        <mxCell id="3Agh389V7zgmcIc8nLXt-10" style="edgeStyle=orthogonalEdgeStyle;rounded=1;orthogonalLoop=1;jettySize=auto;html=1;entryX=0.5;entryY=0;entryDx=0;entryDy=0;curved=0;" edge="1" parent="1" source="3Agh389V7zgmcIc8nLXt-5" target="3Agh389V7zgmcIc8nLXt-4">
          <mxGeometry relative="1" as="geometry">
            <Array as="points">
              <mxPoint x="790" y="200" />
              <mxPoint x="620" y="200" />
            </Array>
          </mxGeometry>
        </mxCell>
        <mxCell id="3Agh389V7zgmcIc8nLXt-5" value="task planning" style="rounded=1;whiteSpace=wrap;html=1;fillColor=none;strokeColor=#006aff;fillStyle=auto;" vertex="1" parent="1">
          <mxGeometry x="730" y="220" width="120" height="60" as="geometry" />
        </mxCell>
      </root>
    </mxGraphModel>
  </diagram>
</mxfile>
